<svg xmlns="http://www.w3.org/2000/svg" xmlns:xlink="http://www.w3.org/1999/xlink" contentStyleType="text/css" data-diagram-type="SEQUENCE" height="730px" preserveAspectRatio="none" style="width:1118px;height:730px;background:#FFFFFF;" version="1.1" viewBox="0 0 1118 730" width="1118px" zoomAndPan="magnify"><?plantuml 1.2026.6?><defs/><g><g class="title" data-source-line="1"><text fill="#000000" font-family="sans-serif" font-size="14" font-weight="700" lengthAdjust="spacing" textLength="117.6616" x="496.712" y="27.9951">&#50868;&#46041; &#51221;&#48372; &#46321;&#47197; &#55120;&#47492;</text></g><g class="participant-lifeline" data-entity-uid="part1" data-qualified-name="User" data-source-line="3" id="part1-lifeline"><g><title>......</title><rect fill="#000000" fill-opacity="0.00000" height="529.3906" width="8" x="38.5583" y="118.5938"/><line style="stroke:#181818;stroke-width:0.5;stroke-dasharray:5,5;" x1="42" x2="42" y1="118.5938" y2="647.9844"/></g></g><g class="participant-lifeline" data-entity-uid="part2" data-qualified-name="Front" data-source-line="4" id="part2-lifeline"><g><title>Front .front_model.py.</title><rect fill="#000000" fill-opacity="0.00000" height="529.3906" width="8" x="320.6413" y="118.5938"/><line style="stroke:#181818;stroke-width:0.5;stroke-dasharray:5,5;" x1="323.6725" x2="323.6725" y1="118.5938" y2="647.9844"/></g></g><g class="participant-lifeline" data-entity-uid="part3" data-qualified-name="Server" data-source-line="5" id="part3-lifeline"><g><title>FastAPI Server .back_model.py.</title><rect fill="#000000" fill-opacity="0.00000" height="529.3906" width="8" x="615.4958" y="118.5938"/><line style="stroke:#181818;stroke-width:0.5;stroke-dasharray:5,5;" x1="619.1042" x2="619.1042" y1="118.5938" y2="647.9844"/></g></g><g class="participant-lifeline" data-entity-uid="part4" data-qualified-name="Model" data-source-line="6" id="part4-lifeline"><g><title>WorkoutInfo .Pydantic Model.</title><rect fill="#000000" fill-opacity="0.00000" height="529.3906" width="8" x="854.7355" y="118.5938"/><line style="stroke:#181818;stroke-width:0.5;stroke-dasharray:5,5;" x1="857.8874" x2="857.8874" y1="118.5938" y2="647.9844"/></g></g><g class="participant-lifeline" data-entity-uid="part5" data-qualified-name="DB" data-source-line="7" id="part5-lifeline"><g><title>all_workout .dict.</title><rect fill="#000000" fill-opacity="0.00000" height="529.3906" width="8" x="1039.3346" y="118.5938"/><line style="stroke:#181818;stroke-width:0.5;stroke-dasharray:5,5;" x1="1042.5836" x2="1042.5836" y1="118.5938" y2="647.9844"/></g></g><g class="participant participant-head" data-entity-uid="part1" data-qualified-name="User" data-source-line="3" id="part1-head"><text fill="#000000" font-family="sans-serif" font-size="14" lengthAdjust="spacing" textLength="69.1165" x="5" y="115.292">&#44288;&#47532;&#51088;/&#50976;&#51200;</text><ellipse cx="42.5583" cy="50.7969" fill="#E2E2F0" rx="8" ry="8" style="stroke:#181818;stroke-width:0.5;"/><path d="M42.5583,58.7969 L42.5583,85.7969 M29.5583,66.7969 L55.5583,66.7969 M42.5583,85.7969 L29.5583,100.7969 M42.5583,85.7969 L55.5583,100.7969" fill="none" style="stroke:#181818;stroke-width:0.5;"/></g><g class="participant participant-tail" data-entity-uid="part1" data-qualified-name="User" data-source-line="3" id="part1-tail"><text fill="#000000" font-family="sans-serif" font-size="14" lengthAdjust="spacing" textLength="69.1165" x="5" y="659.9795">&#44288;&#47532;&#51088;/&#50976;&#51200;</text><ellipse cx="42.5583" cy="671.7813" fill="#E2E2F0" rx="8" ry="8" style="stroke:#181818;stroke-width:0.5;"/><path d="M42.5583,679.7813 L42.5583,706.7813 M29.5583,687.7813 L55.5583,687.7813 M42.5583,706.7813 L29.5583,721.7813 M42.5583,706.7813 L55.5583,721.7813" fill="none" style="stroke:#181818;stroke-width:0.5;"/></g><g class="participant participant-head" data-entity-uid="part2" data-qualified-name="Front" data-source-line="4" id="part2-head"><rect fill="#E2E2F0" height="30.2969" rx="2.5" ry="2.5" style="stroke:#181818;stroke-width:0.5;" width="171.9375" x="238.6725" y="87.2969"/><text fill="#000000" font-family="sans-serif" font-size="14" lengthAdjust="spacing" textLength="157.9375" x="245.6725" y="107.292">Front (front_model.py)</text></g><g class="participant participant-tail" data-entity-uid="part2" data-qualified-name="Front" data-source-line="4" id="part2-tail"><rect fill="#E2E2F0" height="30.2969" rx="2.5" ry="2.5" style="stroke:#181818;stroke-width:0.5;" width="171.9375" x="238.6725" y="646.9844"/><text fill="#000000" font-family="sans-serif" font-size="14" lengthAdjust="spacing" textLength="157.9375" x="245.6725" y="666.9795">Front (front_model.py)</text></g><g class="participant participant-head" data-entity-uid="part3" data-qualified-name="Server" data-source-line="5" id="part3-head"><rect fill="#E2E2F0" height="30.2969" rx="2.5" ry="2.5" style="stroke:#181818;stroke-width:0.5;" width="236.7832" x="501.1042" y="87.2969"/><text fill="#000000" font-family="sans-serif" font-size="14" lengthAdjust="spacing" textLength="222.7832" x="508.1042" y="107.292">FastAPI Server (back_model.py)</text></g><g class="participant participant-tail" data-entity-uid="part3" data-qualified-name="Server" data-source-line="5" id="part3-tail"><rect fill="#E2E2F0" height="30.2969" rx="2.5" ry="2.5" style="stroke:#181818;stroke-width:0.5;" width="236.7832" x="501.1042" y="646.9844"/><text fill="#000000" font-family="sans-serif" font-size="14" lengthAdjust="spacing" textLength="222.7832" x="508.1042" y="666.9795">FastAPI Server (back_model.py)</text></g><g class="participant participant-head" data-entity-uid="part4" data-qualified-name="Model" data-source-line="6" id="part4-head"><rect fill="#E2E2F0" height="30.2969" rx="2.5" ry="2.5" style="stroke:#181818;stroke-width:0.5;" width="221.6963" x="747.8874" y="87.2969"/><text fill="#000000" font-family="sans-serif" font-size="14" lengthAdjust="spacing" textLength="207.6963" x="754.8874" y="107.292">WorkoutInfo (Pydantic Model)</text></g><g class="participant participant-tail" data-entity-uid="part4" data-qualified-name="Model" data-source-line="6" id="part4-tail"><rect fill="#E2E2F0" height="30.2969" rx="2.5" ry="2.5" style="stroke:#181818;stroke-width:0.5;" width="221.6963" x="747.8874" y="646.9844"/><text fill="#000000" font-family="sans-serif" font-size="14" lengthAdjust="spacing" textLength="207.6963" x="754.8874" y="666.9795">WorkoutInfo (Pydantic Model)</text></g><g class="participant participant-head" data-entity-uid="part5" data-qualified-name="DB" data-source-line="7" id="part5-head"><text fill="#000000" font-family="sans-serif" font-size="14" lengthAdjust="spacing" textLength="121.502" x="979.5836" y="115.292">all_workout (dict)</text><path d="M1025.3346,66.2969 C1025.3346,56.2969 1043.3346,56.2969 1043.3346,56.2969 C1043.3346,56.2969 1061.3346,56.2969 1061.3346,66.2969 L1061.3346,92.2969 C1061.3346,102.2969 1043.3346,102.2969 1043.3346,102.2969 C1043.3346,102.2969 1025.3346,102.2969 1025.3346,92.2969 L1025.3346,66.2969" fill="#E2E2F0" style="stroke:#181818;stroke-width:0.5;"/><path d="M1025.3346,66.2969 C1025.3346,76.2969 1043.3346,76.2969 1043.3346,76.2969 C1043.3346,76.2969 1061.3346,76.2969 1061.3346,66.2969" fill="none" style="stroke:#181818;stroke-width:0.5;"/></g><g class="participant participant-tail" data-entity-uid="part5" data-qualified-name="DB" data-source-line="7" id="part5-tail"><text fill="#000000" font-family="sans-serif" font-size="14" lengthAdjust="spacing" textLength="121.502" x="979.5836" y="659.9795">all_workout (dict)</text><path d="M1025.3346,673.2813 C1025.3346,663.2813 1043.3346,663.2813 1043.3346,663.2813 C1043.3346,663.2813 1061.3346,663.2813 1061.3346,673.2813 L1061.3346,699.2813 C1061.3346,709.2813 1043.3346,709.2813 1043.3346,709.2813 C1043.3346,709.2813 1025.3346,709.2813 1025.3346,699.2813 L1025.3346,673.2813" fill="#E2E2F0" style="stroke:#181818;stroke-width:0.5;"/><path d="M1025.3346,673.2813 C1025.3346,683.2813 1043.3346,683.2813 1043.3346,683.2813 C1043.3346,683.2813 1061.3346,683.2813 1061.3346,673.2813" fill="none" style="stroke:#181818;stroke-width:0.5;"/></g><g class="message" data-entity-1="part1" data-entity-2="part2" data-source-line="9" id="msg1"><polygon fill="#181818" points="312.6413,160.8594,322.6413,164.8594,312.6413,168.8594,316.6413,164.8594" style="stroke:#181818;stroke-width:1;stroke-linejoin:miter;stroke-miterlimit:10;"/><line style="stroke:#181818;stroke-width:1;" x1="42.5583" x2="318.6413" y1="164.8594" y2="164.8594"/><text fill="#000000" font-family="sans-serif" font-size="13" lengthAdjust="spacing" textLength="75.8924" x="49.5583" y="144.6606">&#50868;&#46041;&#51221;&#48372; &#51077;&#47141;</text><text fill="#000000" font-family="sans-serif" font-size="13" lengthAdjust="spacing" textLength="258.083" x="49.5583" y="159.7935">(user_id, wokind, wocount, wointensity)</text></g><g class="message" data-entity-1="part2" data-entity-2="part3" data-source-line="10" id="msg2"><polygon fill="#181818" points="607.4958,205.125,617.4958,209.125,607.4958,213.125,611.4958,209.125" style="stroke:#181818;stroke-width:1;stroke-linejoin:miter;stroke-miterlimit:10;"/><line style="stroke:#181818;stroke-width:1;" x1="324.6413" x2="613.4958" y1="209.125" y2="209.125"/><text fill="#000000" font-family="sans-serif" font-size="13" lengthAdjust="spacing" textLength="163.1665" x="331.6413" y="188.9263">POST /workout/{user_id}</text><text fill="#000000" font-family="sans-serif" font-size="13" lengthAdjust="spacing" textLength="270.8545" x="331.6413" y="204.0591">(workload: wokind, wocount, wointensity)</text></g><g class="message" data-entity-1="part3" data-entity-2="part4" data-source-line="11" id="msg3"><polygon fill="#181818" points="846.7355,234.2578,856.7355,238.2578,846.7355,242.2578,850.7355,238.2578" style="stroke:#181818;stroke-width:1;stroke-linejoin:miter;stroke-miterlimit:10;"/><line style="stroke:#181818;stroke-width:1;" x1="619.4958" x2="852.7355" y1="238.2578" y2="238.2578"/><text fill="#000000" font-family="sans-serif" font-size="13" lengthAdjust="spacing" textLength="161.9604" x="626.4958" y="233.1919">WorkoutInfo(**workload)</text></g><g class="message" data-entity-1="part4" data-entity-2="part3" data-source-line="12" id="msg4"><polygon fill="#181818" points="630.4958,263.3906,620.4958,267.3906,630.4958,271.3906,626.4958,267.3906" style="stroke:#181818;stroke-width:1;stroke-linejoin:miter;stroke-miterlimit:10;"/><line style="stroke:#181818;stroke-width:1;stroke-dasharray:2,2;" x1="624.4958" x2="857.7355" y1="267.3906" y2="267.3906"/><text fill="#000000" font-family="sans-serif" font-size="13" lengthAdjust="spacing" textLength="159.0096" x="636.4958" y="262.3247">&#45936;&#51060;&#53552; &#44160;&#51613; &#50756;&#47308; (workout)</text></g><g class="message" data-entity-1="part3" data-entity-2="part3" data-source-line="13" id="msg5"><line style="stroke:#181818;stroke-width:1;" x1="619.4958" x2="661.4958" y1="296.5234" y2="296.5234"/><line style="stroke:#181818;stroke-width:1;" x1="661.4958" x2="661.4958" y1="296.5234" y2="309.5234"/><line style="stroke:#181818;stroke-width:1;" x1="620.4958" x2="661.4958" y1="309.5234" y2="309.5234"/><polygon fill="#181818" points="630.4958,305.5234,620.4958,309.5234,630.4958,313.5234,626.4958,309.5234" style="stroke:#181818;stroke-width:1;stroke-linejoin:miter;stroke-miterlimit:10;"/><text fill="#000000" font-family="sans-serif" font-size="13" lengthAdjust="spacing" textLength="151.4106" x="626.4958" y="291.4575">workout.model_dump()</text></g><g class="message" data-entity-1="part3" data-entity-2="part5" data-source-line="14" id="msg6"><polygon fill="#181818" points="1031.3346,334.6563,1041.3346,338.6563,1031.3346,342.6563,1035.3346,338.6563" style="stroke:#181818;stroke-width:1;stroke-linejoin:miter;stroke-miterlimit:10;"/><line style="stroke:#181818;stroke-width:1;" x1="619.4958" x2="1037.3346" y1="338.6563" y2="338.6563"/><text fill="#000000" font-family="sans-serif" font-size="13" lengthAdjust="spacing" textLength="238.9893" x="626.4958" y="333.5903">all_workout[user_id] = workout_data</text></g><g class="message" data-entity-1="part3" data-entity-2="part2" data-source-line="15" id="msg7"><polygon fill="#181818" points="335.6413,378.9219,325.6413,382.9219,335.6413,386.9219,331.6413,382.9219" style="stroke:#181818;stroke-width:1;stroke-linejoin:miter;stroke-miterlimit:10;"/><line style="stroke:#181818;stroke-width:1;stroke-dasharray:2,2;" x1="329.6413" x2="618.4958" y1="382.9219" y2="382.9219"/><text fill="#000000" font-family="sans-serif" font-size="13" lengthAdjust="spacing" textLength="47.7026" x="341.6413" y="362.7231">200 OK</text><text fill="#000000" font-family="sans-serif" font-size="13" lengthAdjust="spacing" textLength="157.6948" x="341.6413" y="377.856">{message, saved_data}</text></g><g class="message" data-entity-1="part2" data-entity-2="part1" data-source-line="16" id="msg8"><polygon fill="#181818" points="53.5583,408.0547,43.5583,412.0547,53.5583,416.0547,49.5583,412.0547" style="stroke:#181818;stroke-width:1;stroke-linejoin:miter;stroke-miterlimit:10;"/><line style="stroke:#181818;stroke-width:1;stroke-dasharray:2,2;" x1="47.5583" x2="323.6413" y1="412.0547" y2="412.0547"/><text fill="#000000" font-family="sans-serif" font-size="13" lengthAdjust="spacing" textLength="120.037" x="59.5583" y="406.9888">&#46321;&#47197; &#50756;&#47308; &#47700;&#49884;&#51648; &#52636;&#47141;</text></g><rect fill="#EEEEEE" height="3" style="stroke:#EEEEEE;stroke-width:1;" width="1112.0856" x="0" y="440.6211"/><line style="stroke:#000000;stroke-width:1;" x1="0" x2="1112.0856" y1="440.6211" y2="440.6211"/><line style="stroke:#000000;stroke-width:1;" x1="0" x2="1112.0856" y1="443.6211" y2="443.6211"/><rect fill="#EEEEEE" height="23.1328" style="stroke:#000000;stroke-width:2;" width="94.7346" x="508.6755" y="430.0547"/><text fill="#000000" font-family="sans-serif" font-size="13" font-weight="700" lengthAdjust="spacing" textLength="76.2087" x="514.6755" y="446.1216">&#51312;&#54924; (&#44288;&#47532;&#51088;)</text><g class="message" data-entity-1="part1" data-entity-2="part2" data-source-line="19" id="msg9"><polygon fill="#181818" points="312.6413,480.3203,322.6413,484.3203,312.6413,488.3203,316.6413,484.3203" style="stroke:#181818;stroke-width:1;stroke-linejoin:miter;stroke-miterlimit:10;"/><line style="stroke:#181818;stroke-width:1;" x1="42.5583" x2="318.6413" y1="484.3203" y2="484.3203"/><text fill="#000000" font-family="sans-serif" font-size="13" lengthAdjust="spacing" textLength="136.1294" x="49.5583" y="479.2544">&#51204;&#52404; &#50868;&#46041; &#44592;&#47197; &#51312;&#54924; &#50836;&#52397;</text></g><g class="message" data-entity-1="part2" data-entity-2="part3" data-source-line="20" id="msg10"><polygon fill="#181818" points="607.4958,509.4531,617.4958,513.4531,607.4958,517.4531,611.4958,513.4531" style="stroke:#181818;stroke-width:1;stroke-linejoin:miter;stroke-miterlimit:10;"/><line style="stroke:#181818;stroke-width:1;" x1="324.6413" x2="613.4958" y1="513.4531" y2="513.4531"/><text fill="#000000" font-family="sans-serif" font-size="13" lengthAdjust="spacing" textLength="87.4897" x="331.6413" y="508.3872">GET /workout</text></g><g class="message" data-entity-1="part3" data-entity-2="part5" data-source-line="21" id="msg11"><polygon fill="#181818" points="1031.3346,538.5859,1041.3346,542.5859,1031.3346,546.5859,1035.3346,542.5859" style="stroke:#181818;stroke-width:1;stroke-linejoin:miter;stroke-miterlimit:10;"/><line style="stroke:#181818;stroke-width:1;" x1="619.4958" x2="1037.3346" y1="542.5859" y2="542.5859"/><text fill="#000000" font-family="sans-serif" font-size="13" lengthAdjust="spacing" textLength="102.4913" x="626.4958" y="537.52">all_workout &#51312;&#54924;</text></g><g class="message" data-entity-1="part5" data-entity-2="part3" data-source-line="22" id="msg12"><polygon fill="#181818" points="630.4958,567.7188,620.4958,571.7188,630.4958,575.7188,626.4958,571.7188" style="stroke:#181818;stroke-width:1;stroke-linejoin:miter;stroke-miterlimit:10;"/><line style="stroke:#181818;stroke-width:1;stroke-dasharray:2,2;" x1="624.4958" x2="1042.3346" y1="571.7188" y2="571.7188"/><text fill="#000000" font-family="sans-serif" font-size="13" lengthAdjust="spacing" textLength="80.0247" x="636.4958" y="566.6528">&#51204;&#52404; &#50868;&#46041; &#44592;&#47197;</text></g><g class="message" data-entity-1="part3" data-entity-2="part2" data-source-line="23" id="msg13"><polygon fill="#181818" points="335.6413,596.8516,325.6413,600.8516,335.6413,604.8516,331.6413,600.8516" style="stroke:#181818;stroke-width:1;stroke-linejoin:miter;stroke-miterlimit:10;"/><line style="stroke:#181818;stroke-width:1;stroke-dasharray:2,2;" x1="329.6413" x2="618.4958" y1="600.8516" y2="600.8516"/><text fill="#000000" font-family="sans-serif" font-size="13" lengthAdjust="spacing" textLength="180.6099" x="341.6413" y="595.7856">200 OK {data: all_workout}</text></g><g class="message" data-entity-1="part2" data-entity-2="part1" data-source-line="24" id="msg14"><polygon fill="#181818" points="53.5583,625.9844,43.5583,629.9844,53.5583,633.9844,49.5583,629.9844" style="stroke:#181818;stroke-width:1;stroke-linejoin:miter;stroke-miterlimit:10;"/><line style="stroke:#181818;stroke-width:1;stroke-dasharray:2,2;" x1="47.5583" x2="323.6413" y1="629.9844" y2="629.9844"/><text fill="#000000" font-family="sans-serif" font-size="13" lengthAdjust="spacing" textLength="80.0247" x="59.5583" y="624.9185">&#50868;&#46041; &#51221;&#48372; &#52636;&#47141;</text></g><?plantuml-src XLD1Inj16BtFh_Zmj14rud5XXOfLf1G3LZneMSRTiGpPx8JTYHA2a4CysQ9GUp0aibAQKcWXnaNwcpAJ_z3PtTcueR6zx0pVzzwRUU-RvPHx16Gt5bUt8ACluZ46yVb1tFTXqhyMWmv2sE4iWFsG1813M1Z7RJ7uAU-kox8NoQYzWEeuuDIXTUnps0gO-YQuR6US98jTOoxnLkhDqYnwZmIdMdOBX_nLPISl6SVOgRv4UvkKKzO12wgimNVy4mP6fUcgBdMolkAucEDZ71BOt4ZHsFFiium1XaiThZ0eDRQyhczkwYnq5FBkGaJVZdoZeL0sTPVWZ5MfdwuEQ_WysL2V4p-al5b2cOXIqpPCgEpklOEoFhNSqZhdIZAfUGoxvdyqjPGIpNoRK71jB2xcEYMKzPUBnujFGzcF9vqXZ4TjEUY3lEs8hn_1q3Sgoaz9khUInc-xZLhTAE9KcYOKiZpKfjw3bLFj9FeffP3kskegxBuvybir4eRu0rc249yIDyMVv_4fV3eLCt-A-jBYnusyxCdlRP1FFJKNX2mBvFrmqbM6fk-o19RrzrIZZXp5-KCV_nwciXbLTc_awDUSsMs_VXxTF_nh7QJgCzdFE_FbJA2LP30ZF2UGsJyrY-4F?></g></svg>