<svg xmlns="http://www.w3.org/2000/svg" xmlns:xlink="http://www.w3.org/1999/xlink" contentStyleType="text/css" data-diagram-type="SEQUENCE" height="730px" preserveAspectRatio="none" style="width:1088px;height:730px;background:#FFFFFF;" version="1.1" viewBox="0 0 1088 730" width="1088px" zoomAndPan="magnify"><?plantuml 1.2026.6?><defs/><g><g class="title" data-source-line="1"><text fill="#000000" font-family="sans-serif" font-size="14" font-weight="700" lengthAdjust="spacing" textLength="117.6616" x="481.9622" y="27.9951">&#49888;&#52404; &#51221;&#48372; &#46321;&#47197; &#55120;&#47492;</text></g><g class="participant-lifeline" data-entity-uid="part1" data-qualified-name="User" data-source-line="3" id="part1-lifeline"><g><title>......</title><rect fill="#000000" fill-opacity="0.00000" height="529.3906" width="8" x="38.5583" y="118.5938"/><line style="stroke:#181818;stroke-width:0.5;stroke-dasharray:5,5;" x1="42" x2="42" y1="118.5938" y2="647.9844"/></g></g><g class="participant-lifeline" data-entity-uid="part2" data-qualified-name="Front" data-source-line="4" id="part2-lifeline"><g><title>Front .front_model.py.</title><rect fill="#000000" fill-opacity="0.00000" height="529.3906" width="8" x="282.2316" y="118.5938"/><line style="stroke:#181818;stroke-width:0.5;stroke-dasharray:5,5;" x1="285.2628" x2="285.2628" y1="118.5938" y2="647.9844"/></g></g><g class="participant-lifeline" data-entity-uid="part3" data-qualified-name="Server" data-source-line="5" id="part3-lifeline"><g><title>FastAPI Server .back_model.py.</title><rect fill="#000000" fill-opacity="0.00000" height="529.3906" width="8" x="586.1125" y="118.5938"/><line style="stroke:#181818;stroke-width:0.5;stroke-dasharray:5,5;" x1="589.7209" x2="589.7209" y1="118.5938" y2="647.9844"/></g></g><g class="participant-lifeline" data-entity-uid="part4" data-qualified-name="Model" data-source-line="6" id="part4-lifeline"><g><title>HealthRecord .Pydantic Model.</title><rect fill="#000000" fill-opacity="0.00000" height="529.3906" width="8" x="830.1134" y="118.5938"/><line style="stroke:#181818;stroke-width:0.5;stroke-dasharray:5,5;" x1="833.5041" x2="833.5041" y1="118.5938" y2="647.9844"/></g></g><g class="participant-lifeline" data-entity-uid="part5" data-qualified-name="DB" data-source-line="7" id="part5-lifeline"><g><title>all_records .list.</title><rect fill="#000000" fill-opacity="0.00000" height="529.3906" width="8" x="1014.6544" y="118.5938"/><line style="stroke:#181818;stroke-width:0.5;stroke-dasharray:5,5;" x1="1017.7228" x2="1017.7228" y1="118.5938" y2="647.9844"/></g></g><g class="participant participant-head" data-entity-uid="part1" data-qualified-name="User" data-source-line="3" id="part1-head"><text fill="#000000" font-family="sans-serif" font-size="14" lengthAdjust="spacing" textLength="69.1165" x="5" y="115.292">&#44288;&#47532;&#51088;/&#50976;&#51200;</text><ellipse cx="42.5583" cy="50.7969" fill="#E2E2F0" rx="8" ry="8" style="stroke:#181818;stroke-width:0.5;"/><path d="M42.5583,58.7969 L42.5583,85.7969 M29.5583,66.7969 L55.5583,66.7969 M42.5583,85.7969 L29.5583,100.7969 M42.5583,85.7969 L55.5583,100.7969" fill="none" style="stroke:#181818;stroke-width:0.5;"/></g><g class="participant participant-tail" data-entity-uid="part1" data-qualified-name="User" data-source-line="3" id="part1-tail"><text fill="#000000" font-family="sans-serif" font-size="14" lengthAdjust="spacing" textLength="69.1165" x="5" y="659.9795">&#44288;&#47532;&#51088;/&#50976;&#51200;</text><ellipse cx="42.5583" cy="671.7813" fill="#E2E2F0" rx="8" ry="8" style="stroke:#181818;stroke-width:0.5;"/><path d="M42.5583,679.7813 L42.5583,706.7813 M29.5583,687.7813 L55.5583,687.7813 M42.5583,706.7813 L29.5583,721.7813 M42.5583,706.7813 L55.5583,721.7813" fill="none" style="stroke:#181818;stroke-width:0.5;"/></g><g class="participant participant-head" data-entity-uid="part2" data-qualified-name="Front" data-source-line="4" id="part2-head"><rect fill="#E2E2F0" height="30.2969" rx="2.5" ry="2.5" style="stroke:#181818;stroke-width:0.5;" width="171.9375" x="200.2628" y="87.2969"/><text fill="#000000" font-family="sans-serif" font-size="14" lengthAdjust="spacing" textLength="157.9375" x="207.2628" y="107.292">Front (front_model.py)</text></g><g class="participant participant-tail" data-entity-uid="part2" data-qualified-name="Front" data-source-line="4" id="part2-tail"><rect fill="#E2E2F0" height="30.2969" rx="2.5" ry="2.5" style="stroke:#181818;stroke-width:0.5;" width="171.9375" x="200.2628" y="646.9844"/><text fill="#000000" font-family="sans-serif" font-size="14" lengthAdjust="spacing" textLength="157.9375" x="207.2628" y="666.9795">Front (front_model.py)</text></g><g class="participant participant-head" data-entity-uid="part3" data-qualified-name="Server" data-source-line="5" id="part3-head"><rect fill="#E2E2F0" height="30.2969" rx="2.5" ry="2.5" style="stroke:#181818;stroke-width:0.5;" width="236.7832" x="471.7209" y="87.2969"/><text fill="#000000" font-family="sans-serif" font-size="14" lengthAdjust="spacing" textLength="222.7832" x="478.7209" y="107.292">FastAPI Server (back_model.py)</text></g><g class="participant participant-tail" data-entity-uid="part3" data-qualified-name="Server" data-source-line="5" id="part3-tail"><rect fill="#E2E2F0" height="30.2969" rx="2.5" ry="2.5" style="stroke:#181818;stroke-width:0.5;" width="236.7832" x="471.7209" y="646.9844"/><text fill="#000000" font-family="sans-serif" font-size="14" lengthAdjust="spacing" textLength="222.7832" x="478.7209" y="666.9795">FastAPI Server (back_model.py)</text></g><g class="participant participant-head" data-entity-uid="part4" data-qualified-name="Model" data-source-line="6" id="part4-head"><rect fill="#E2E2F0" height="30.2969" rx="2.5" ry="2.5" style="stroke:#181818;stroke-width:0.5;" width="231.2188" x="718.5041" y="87.2969"/><text fill="#000000" font-family="sans-serif" font-size="14" lengthAdjust="spacing" textLength="217.2188" x="725.5041" y="107.292">HealthRecord (Pydantic Model)</text></g><g class="participant participant-tail" data-entity-uid="part4" data-qualified-name="Model" data-source-line="6" id="part4-tail"><rect fill="#E2E2F0" height="30.2969" rx="2.5" ry="2.5" style="stroke:#181818;stroke-width:0.5;" width="231.2188" x="718.5041" y="646.9844"/><text fill="#000000" font-family="sans-serif" font-size="14" lengthAdjust="spacing" textLength="217.2188" x="725.5041" y="666.9795">HealthRecord (Pydantic Model)</text></g><g class="participant participant-head" data-entity-uid="part5" data-qualified-name="DB" data-source-line="7" id="part5-head"><text fill="#000000" font-family="sans-serif" font-size="14" lengthAdjust="spacing" textLength="111.8633" x="959.7228" y="115.292">all_records (list)</text><path d="M1000.6544,66.2969 C1000.6544,56.2969 1018.6544,56.2969 1018.6544,56.2969 C1018.6544,56.2969 1036.6544,56.2969 1036.6544,66.2969 L1036.6544,92.2969 C1036.6544,102.2969 1018.6544,102.2969 1018.6544,102.2969 C1018.6544,102.2969 1000.6544,102.2969 1000.6544,92.2969 L1000.6544,66.2969" fill="#E2E2F0" style="stroke:#181818;stroke-width:0.5;"/><path d="M1000.6544,66.2969 C1000.6544,76.2969 1018.6544,76.2969 1018.6544,76.2969 C1018.6544,76.2969 1036.6544,76.2969 1036.6544,66.2969" fill="none" style="stroke:#181818;stroke-width:0.5;"/></g><g class="participant participant-tail" data-entity-uid="part5" data-qualified-name="DB" data-source-line="7" id="part5-tail"><text fill="#000000" font-family="sans-serif" font-size="14" lengthAdjust="spacing" textLength="111.8633" x="959.7228" y="659.9795">all_records (list)</text><path d="M1000.6544,673.2813 C1000.6544,663.2813 1018.6544,663.2813 1018.6544,663.2813 C1018.6544,663.2813 1036.6544,663.2813 1036.6544,673.2813 L1036.6544,699.2813 C1036.6544,709.2813 1018.6544,709.2813 1018.6544,709.2813 C1018.6544,709.2813 1000.6544,709.2813 1000.6544,699.2813 L1000.6544,673.2813" fill="#E2E2F0" style="stroke:#181818;stroke-width:0.5;"/><path d="M1000.6544,673.2813 C1000.6544,683.2813 1018.6544,683.2813 1018.6544,683.2813 C1018.6544,683.2813 1036.6544,683.2813 1036.6544,673.2813" fill="none" style="stroke:#181818;stroke-width:0.5;"/></g><g class="message" data-entity-1="part1" data-entity-2="part2" data-source-line="9" id="msg1"><polygon fill="#181818" points="274.2316,160.8594,284.2316,164.8594,274.2316,168.8594,278.2316,164.8594" style="stroke:#181818;stroke-width:1;stroke-linejoin:miter;stroke-miterlimit:10;"/><line style="stroke:#181818;stroke-width:1;" x1="42.5583" x2="280.2316" y1="164.8594" y2="164.8594"/><text fill="#000000" font-family="sans-serif" font-size="13" lengthAdjust="spacing" textLength="75.8924" x="49.5583" y="144.6606">&#54924;&#50896;&#51221;&#48372; &#51077;&#47141;</text><text fill="#000000" font-family="sans-serif" font-size="13" lengthAdjust="spacing" textLength="219.6733" x="49.5583" y="159.7935">(user_id, height, weight, workout)</text></g><g class="message" data-entity-1="part2" data-entity-2="part3" data-source-line="10" id="msg2"><polygon fill="#181818" points="578.1125,205.125,588.1125,209.125,578.1125,213.125,582.1125,209.125" style="stroke:#181818;stroke-width:1;stroke-linejoin:miter;stroke-miterlimit:10;"/><line style="stroke:#181818;stroke-width:1;" x1="286.2316" x2="584.1125" y1="209.125" y2="209.125"/><text fill="#000000" font-family="sans-serif" font-size="13" lengthAdjust="spacing" textLength="84.8174" x="293.2316" y="188.9263">POST /record</text><text fill="#000000" font-family="sans-serif" font-size="13" lengthAdjust="spacing" textLength="279.8809" x="293.2316" y="204.0591">(payload: user_id, height, weight, workout)</text></g><g class="message" data-entity-1="part3" data-entity-2="part4" data-source-line="11" id="msg3"><polygon fill="#181818" points="822.1134,234.2578,832.1134,238.2578,822.1134,242.2578,826.1134,238.2578" style="stroke:#181818;stroke-width:1;stroke-linejoin:miter;stroke-miterlimit:10;"/><line style="stroke:#181818;stroke-width:1;" x1="590.1125" x2="828.1134" y1="238.2578" y2="238.2578"/><text fill="#000000" font-family="sans-serif" font-size="13" lengthAdjust="spacing" textLength="163.2554" x="597.1125" y="233.1919">HealthRecord(**payload)</text></g><g class="message" data-entity-1="part4" data-entity-2="part3" data-source-line="12" id="msg4"><polygon fill="#181818" points="601.1125,263.3906,591.1125,267.3906,601.1125,271.3906,597.1125,267.3906" style="stroke:#181818;stroke-width:1;stroke-linejoin:miter;stroke-miterlimit:10;"/><line style="stroke:#181818;stroke-width:1;stroke-dasharray:2,2;" x1="595.1125" x2="833.1134" y1="267.3906" y2="267.3906"/><text fill="#000000" font-family="sans-serif" font-size="13" lengthAdjust="spacing" textLength="193.2806" x="607.1125" y="262.3247">&#45936;&#51060;&#53552; &#44160;&#51613; &#50756;&#47308; (personal_info)</text></g><g class="message" data-entity-1="part3" data-entity-2="part3" data-source-line="13" id="msg5"><line style="stroke:#181818;stroke-width:1;" x1="590.1125" x2="632.1125" y1="296.5234" y2="296.5234"/><line style="stroke:#181818;stroke-width:1;" x1="632.1125" x2="632.1125" y1="296.5234" y2="309.5234"/><line style="stroke:#181818;stroke-width:1;" x1="591.1125" x2="632.1125" y1="309.5234" y2="309.5234"/><polygon fill="#181818" points="601.1125,305.5234,591.1125,309.5234,601.1125,313.5234,597.1125,309.5234" style="stroke:#181818;stroke-width:1;stroke-linejoin:miter;stroke-miterlimit:10;"/><text fill="#000000" font-family="sans-serif" font-size="13" lengthAdjust="spacing" textLength="185.6816" x="597.1125" y="291.4575">personal_info.model_dump()</text></g><g class="message" data-entity-1="part3" data-entity-2="part5" data-source-line="14" id="msg6"><polygon fill="#181818" points="1006.6544,334.6563,1016.6544,338.6563,1006.6544,342.6563,1010.6544,338.6563" style="stroke:#181818;stroke-width:1;stroke-linejoin:miter;stroke-miterlimit:10;"/><line style="stroke:#181818;stroke-width:1;" x1="590.1125" x2="1012.6544" y1="338.6563" y2="338.6563"/><text fill="#000000" font-family="sans-serif" font-size="13" lengthAdjust="spacing" textLength="196.3901" x="597.1125" y="333.5903">all_records.append(new_data)</text></g><g class="message" data-entity-1="part3" data-entity-2="part2" data-source-line="15" id="msg7"><polygon fill="#181818" points="297.2316,378.9219,287.2316,382.9219,297.2316,386.9219,293.2316,382.9219" style="stroke:#181818;stroke-width:1;stroke-linejoin:miter;stroke-miterlimit:10;"/><line style="stroke:#181818;stroke-width:1;stroke-dasharray:2,2;" x1="291.2316" x2="589.1125" y1="382.9219" y2="382.9219"/><text fill="#000000" font-family="sans-serif" font-size="13" lengthAdjust="spacing" textLength="47.7026" x="303.2316" y="362.7231">200 OK</text><text fill="#000000" font-family="sans-serif" font-size="13" lengthAdjust="spacing" textLength="161.4971" x="303.2316" y="377.856">{message, total_record}</text></g><g class="message" data-entity-1="part2" data-entity-2="part1" data-source-line="16" id="msg8"><polygon fill="#181818" points="53.5583,408.0547,43.5583,412.0547,53.5583,416.0547,49.5583,412.0547" style="stroke:#181818;stroke-width:1;stroke-linejoin:miter;stroke-miterlimit:10;"/><line style="stroke:#181818;stroke-width:1;stroke-dasharray:2,2;" x1="47.5583" x2="285.2316" y1="412.0547" y2="412.0547"/><text fill="#000000" font-family="sans-serif" font-size="13" lengthAdjust="spacing" textLength="160.0494" x="59.5583" y="406.9888">&#45936;&#51060;&#53552; &#52376;&#47532; &#50756;&#47308; &#47700;&#49884;&#51648; &#52636;&#47141;</text></g><rect fill="#EEEEEE" height="3" style="stroke:#EEEEEE;stroke-width:1;" width="1082.5861" x="0" y="440.6211"/><line style="stroke:#000000;stroke-width:1;" x1="0" x2="1082.5861" y1="440.6211" y2="440.6211"/><line style="stroke:#000000;stroke-width:1;" x1="0" x2="1082.5861" y1="443.6211" y2="443.6211"/><rect fill="#EEEEEE" height="23.1328" style="stroke:#000000;stroke-width:2;" width="94.7346" x="493.9257" y="430.0547"/><text fill="#000000" font-family="sans-serif" font-size="13" font-weight="700" lengthAdjust="spacing" textLength="76.2087" x="499.9257" y="446.1216">&#51312;&#54924; (&#44288;&#47532;&#51088;)</text><g class="message" data-entity-1="part1" data-entity-2="part2" data-source-line="19" id="msg9"><polygon fill="#181818" points="274.2316,480.3203,284.2316,484.3203,274.2316,488.3203,278.2316,484.3203" style="stroke:#181818;stroke-width:1;stroke-linejoin:miter;stroke-miterlimit:10;"/><line style="stroke:#181818;stroke-width:1;" x1="42.5583" x2="280.2316" y1="484.3203" y2="484.3203"/><text fill="#000000" font-family="sans-serif" font-size="13" lengthAdjust="spacing" textLength="136.1294" x="49.5583" y="479.2544">&#51204;&#52404; &#49888;&#52404; &#51221;&#48372; &#51312;&#54924; &#50836;&#52397;</text></g><g class="message" data-entity-1="part2" data-entity-2="part3" data-source-line="20" id="msg10"><polygon fill="#181818" points="578.1125,509.4531,588.1125,513.4531,578.1125,517.4531,582.1125,513.4531" style="stroke:#181818;stroke-width:1;stroke-linejoin:miter;stroke-miterlimit:10;"/><line style="stroke:#181818;stroke-width:1;" x1="286.2316" x2="584.1125" y1="513.4531" y2="513.4531"/><text fill="#000000" font-family="sans-serif" font-size="13" lengthAdjust="spacing" textLength="76.7813" x="293.2316" y="508.3872">GET /record</text></g><g class="message" data-entity-1="part3" data-entity-2="part5" data-source-line="21" id="msg11"><polygon fill="#181818" points="1006.6544,538.5859,1016.6544,542.5859,1006.6544,546.5859,1010.6544,542.5859" style="stroke:#181818;stroke-width:1;stroke-linejoin:miter;stroke-miterlimit:10;"/><line style="stroke:#181818;stroke-width:1;" x1="590.1125" x2="1012.6544" y1="542.5859" y2="542.5859"/><text fill="#000000" font-family="sans-serif" font-size="13" lengthAdjust="spacing" textLength="98.5558" x="597.1125" y="537.52">all_records &#51312;&#54924;</text></g><g class="message" data-entity-1="part5" data-entity-2="part3" data-source-line="22" id="msg12"><polygon fill="#181818" points="601.1125,567.7188,591.1125,571.7188,601.1125,575.7188,597.1125,571.7188" style="stroke:#181818;stroke-width:1;stroke-linejoin:miter;stroke-miterlimit:10;"/><line style="stroke:#181818;stroke-width:1;stroke-dasharray:2,2;" x1="595.1125" x2="1017.6544" y1="571.7188" y2="571.7188"/><text fill="#000000" font-family="sans-serif" font-size="13" lengthAdjust="spacing" textLength="91.9847" x="607.1125" y="566.6528">&#51204;&#52404; &#44592;&#47197; &#47532;&#49828;&#53944;</text></g><g class="message" data-entity-1="part3" data-entity-2="part2" data-source-line="23" id="msg13"><polygon fill="#181818" points="297.2316,596.8516,287.2316,600.8516,297.2316,604.8516,293.2316,600.8516" style="stroke:#181818;stroke-width:1;stroke-linejoin:miter;stroke-miterlimit:10;"/><line style="stroke:#181818;stroke-width:1;stroke-dasharray:2,2;" x1="291.2316" x2="589.1125" y1="600.8516" y2="600.8516"/><text fill="#000000" font-family="sans-serif" font-size="13" lengthAdjust="spacing" textLength="176.6743" x="303.2316" y="595.7856">200 OK {data: all_records}</text></g><g class="message" data-entity-1="part2" data-entity-2="part1" data-source-line="24" id="msg14"><polygon fill="#181818" points="53.5583,625.9844,43.5583,629.9844,53.5583,633.9844,49.5583,629.9844" style="stroke:#181818;stroke-width:1;stroke-linejoin:miter;stroke-miterlimit:10;"/><line style="stroke:#181818;stroke-width:1;stroke-dasharray:2,2;" x1="47.5583" x2="285.2316" y1="629.9844" y2="629.9844"/><text fill="#000000" font-family="sans-serif" font-size="13" lengthAdjust="spacing" textLength="80.0247" x="59.5583" y="624.9185">&#54924;&#50896; &#51221;&#48372; &#52636;&#47141;</text></g><?plantuml-src XLDTQnD157tVNt7fqwIaQV5n8KB5LaMamUfROPdkJfkbcvrbPc89HSX3V6ah16n1QrAsM2E2Gen1-fkoD__1sQ-uYws-x2mpvvuxvvmxobKU0pm9SJ853C-ZdrE8tls8heOm7_QZKSymgAsuW9UI2Q0IbcRJRZJwXfVzLHo467QNZ80AvTfkG7q5cuBhRunB_yXUl5WjxZ2l5dGgPVGs4wyosaqgrNhZIRv5TgbzS5VPitWxgNhCgAUQpvdDXGEaqN7qiMkd05taK4LtgMJmy442fvvdYGGiWNYkL1fZ9CfMxcTNDs5-SOeV-vaNUFac2Z_l-AIjKPRhLA79tFscgi9Xld9nmDkgOgJrcYYJO49ZQ_i5hAODDKL0EnwdZWd_vyeeD5cgrOIYKhAyd75LZFHyfTWsUZl6uNJU6yDiqiNH4F13B_fq2YHWGdAVUfRhx_5YaqLf2L5BxBUSTYiWHRGsquI2bJKQ1CntYCyEhTZnFzY2g_VMrc3hwOv_r69IqdrM1SKLpJbUv-xfYYIFeWgSlDSJbwk8lfxXoG2_T05_3NGsXb6l0rwDTMn05iDPWNhzhsGnx2LZNfhsh1Glpd3o_POG7sqiClo71ncDeVTBMMGjPpVZ-4d5Tpk-dX_VtEqG7CKMbhXlCIUTqOM4n8ZV?></g></svg>